<mxfile host="app.diagrams.net" modified="2023-03-24T17:13:29.062Z" agent="Mozilla/5.0 (Macintosh; Intel Mac OS X 10.15; rv:109.0) Gecko/20100101 Firefox/111.0" etag="R5xxPhvxVWjtcSHTxskE" compressed="false" version="21.1.0" type="device">
  <diagram name="Page-1" id="2YBvvXClWsGukQMizWep">
    <mxGraphModel dx="1272" dy="819" grid="1" gridSize="10" guides="1" tooltips="1" connect="1" arrows="1" fold="1" page="1" pageScale="1" pageWidth="2500" pageHeight="2500" math="0" shadow="0">
      <root>
        <mxCell id="0" />
        <mxCell id="1" parent="0" />
        <mxCell id="aM9ryv3xv72pqoxQDRHE-5" value="Repository" style="shape=umlLifeline;perimeter=lifelinePerimeter;whiteSpace=wrap;html=1;container=0;dropTarget=0;collapsible=0;recursiveResize=0;outlineConnect=0;portConstraint=eastwest;newEdgeStyle={&quot;edgeStyle&quot;:&quot;elbowEdgeStyle&quot;,&quot;elbow&quot;:&quot;vertical&quot;,&quot;curved&quot;:0,&quot;rounded&quot;:0};" parent="1" vertex="1">
          <mxGeometry x="880" y="40" width="130" height="760" as="geometry" />
        </mxCell>
        <mxCell id="aM9ryv3xv72pqoxQDRHE-6" value="" style="html=1;points=[];perimeter=orthogonalPerimeter;outlineConnect=0;targetShapes=umlLifeline;portConstraint=eastwest;newEdgeStyle={&quot;edgeStyle&quot;:&quot;elbowEdgeStyle&quot;,&quot;elbow&quot;:&quot;vertical&quot;,&quot;curved&quot;:0,&quot;rounded&quot;:0};strokeColor=#3399FF;" parent="aM9ryv3xv72pqoxQDRHE-5" vertex="1">
          <mxGeometry x="60" y="140" width="10" height="80" as="geometry" />
        </mxCell>
        <mxCell id="fCjNDRdymDhb6TnAWpX7-8" value="Student" style="shape=umlActor;verticalLabelPosition=bottom;verticalAlign=top;html=1;outlineConnect=0;strokeColor=#000000;fontSize=13;" parent="1" vertex="1">
          <mxGeometry x="50" y="40" width="30" height="60" as="geometry" />
        </mxCell>
        <mxCell id="fCjNDRdymDhb6TnAWpX7-12" value="" style="html=1;points=[];perimeter=orthogonalPerimeter;outlineConnect=0;targetShapes=umlLifeline;portConstraint=eastwest;newEdgeStyle={&quot;edgeStyle&quot;:&quot;elbowEdgeStyle&quot;,&quot;elbow&quot;:&quot;vertical&quot;,&quot;curved&quot;:0,&quot;rounded&quot;:0};strokeColor=#3399FF;" parent="1" vertex="1">
          <mxGeometry x="60" y="130" width="10" height="670" as="geometry" />
        </mxCell>
        <mxCell id="fCjNDRdymDhb6TnAWpX7-27" value="Collection Search Interface" style="shape=umlLifeline;perimeter=lifelinePerimeter;whiteSpace=wrap;html=1;container=0;dropTarget=0;collapsible=0;recursiveResize=0;outlineConnect=0;portConstraint=eastwest;newEdgeStyle={&quot;edgeStyle&quot;:&quot;elbowEdgeStyle&quot;,&quot;elbow&quot;:&quot;vertical&quot;,&quot;curved&quot;:0,&quot;rounded&quot;:0};" parent="1" vertex="1">
          <mxGeometry x="230" y="40" width="120" height="780" as="geometry" />
        </mxCell>
        <mxCell id="fCjNDRdymDhb6TnAWpX7-28" value="" style="html=1;points=[];perimeter=orthogonalPerimeter;outlineConnect=0;targetShapes=umlLifeline;portConstraint=eastwest;newEdgeStyle={&quot;edgeStyle&quot;:&quot;elbowEdgeStyle&quot;,&quot;elbow&quot;:&quot;vertical&quot;,&quot;curved&quot;:0,&quot;rounded&quot;:0};strokeColor=#3399FF;" parent="fCjNDRdymDhb6TnAWpX7-27" vertex="1">
          <mxGeometry x="55" y="90" width="10" height="670" as="geometry" />
        </mxCell>
        <mxCell id="UOv02gEyeNIiNMxLk5ma-9" value="" style="endArrow=classic;html=1;rounded=0;" parent="fCjNDRdymDhb6TnAWpX7-27" edge="1">
          <mxGeometry width="50" height="50" relative="1" as="geometry">
            <mxPoint x="-160" y="130" as="sourcePoint" />
            <mxPoint x="55" y="130" as="targetPoint" />
            <Array as="points">
              <mxPoint x="-50" y="130" />
            </Array>
          </mxGeometry>
        </mxCell>
        <mxCell id="UOv02gEyeNIiNMxLk5ma-11" value="searchQuery(textQuery)" style="text;html=1;strokeColor=none;fillColor=none;align=center;verticalAlign=middle;whiteSpace=wrap;rounded=0;fontSize=13;" parent="fCjNDRdymDhb6TnAWpX7-27" vertex="1">
          <mxGeometry x="-156.25" y="110" width="156.25" height="20" as="geometry" />
        </mxCell>
        <mxCell id="UOv02gEyeNIiNMxLk5ma-12" value="" style="endArrow=classic;html=1;rounded=0;" parent="fCjNDRdymDhb6TnAWpX7-27" edge="1" target="8WBUeJ8e2ZMxS5DKSKpC-84">
          <mxGeometry width="50" height="50" relative="1" as="geometry">
            <mxPoint x="65" y="150" as="sourcePoint" />
            <mxPoint x="250" y="150" as="targetPoint" />
            <Array as="points">
              <mxPoint x="200" y="150" />
            </Array>
          </mxGeometry>
        </mxCell>
        <mxCell id="UOv02gEyeNIiNMxLk5ma-13" value="findBooks(textQuery, studentID, collectionID)" style="text;html=1;strokeColor=none;fillColor=none;align=center;verticalAlign=middle;whiteSpace=wrap;rounded=0;fontSize=13;" parent="fCjNDRdymDhb6TnAWpX7-27" vertex="1">
          <mxGeometry x="65" y="130" width="275" height="20" as="geometry" />
        </mxCell>
        <mxCell id="fCjNDRdymDhb6TnAWpX7-33" value="" style="endArrow=none;dashed=1;html=1;rounded=0;fontSize=13;" parent="1" target="fCjNDRdymDhb6TnAWpX7-12" edge="1">
          <mxGeometry width="50" height="50" relative="1" as="geometry">
            <mxPoint x="65" y="820" as="sourcePoint" />
            <mxPoint x="65" y="660" as="targetPoint" />
            <Array as="points" />
          </mxGeometry>
        </mxCell>
        <mxCell id="8WBUeJ8e2ZMxS5DKSKpC-83" value="Library API" style="shape=umlLifeline;perimeter=lifelinePerimeter;whiteSpace=wrap;html=1;container=0;dropTarget=0;collapsible=0;recursiveResize=0;outlineConnect=0;portConstraint=eastwest;newEdgeStyle={&quot;edgeStyle&quot;:&quot;elbowEdgeStyle&quot;,&quot;elbow&quot;:&quot;vertical&quot;,&quot;curved&quot;:0,&quot;rounded&quot;:0};" parent="1" vertex="1">
          <mxGeometry x="530" y="40" width="130" height="780" as="geometry" />
        </mxCell>
        <mxCell id="8WBUeJ8e2ZMxS5DKSKpC-84" value="" style="html=1;points=[];perimeter=orthogonalPerimeter;outlineConnect=0;targetShapes=umlLifeline;portConstraint=eastwest;newEdgeStyle={&quot;edgeStyle&quot;:&quot;elbowEdgeStyle&quot;,&quot;elbow&quot;:&quot;vertical&quot;,&quot;curved&quot;:0,&quot;rounded&quot;:0};strokeColor=#3399FF;" parent="8WBUeJ8e2ZMxS5DKSKpC-83" vertex="1">
          <mxGeometry x="60" y="90" width="10" height="670" as="geometry" />
        </mxCell>
        <mxCell id="UOv02gEyeNIiNMxLk5ma-21" value="" style="endArrow=classic;html=1;rounded=0;dashed=1;" parent="1" source="aM9ryv3xv72pqoxQDRHE-6" target="8WBUeJ8e2ZMxS5DKSKpC-84" edge="1">
          <mxGeometry width="50" height="50" relative="1" as="geometry">
            <mxPoint x="680" y="240" as="sourcePoint" />
            <mxPoint x="490" y="240" as="targetPoint" />
            <Array as="points">
              <mxPoint x="610" y="240" />
            </Array>
          </mxGeometry>
        </mxCell>
        <mxCell id="UOv02gEyeNIiNMxLk5ma-14" value="" style="endArrow=classic;html=1;rounded=0;" parent="1" source="8WBUeJ8e2ZMxS5DKSKpC-84" target="aM9ryv3xv72pqoxQDRHE-6" edge="1">
          <mxGeometry width="50" height="50" relative="1" as="geometry">
            <mxPoint x="490" y="210" as="sourcePoint" />
            <mxPoint x="560" y="220" as="targetPoint" />
            <Array as="points">
              <mxPoint x="630" y="210" />
            </Array>
          </mxGeometry>
        </mxCell>
        <mxCell id="UOv02gEyeNIiNMxLk5ma-15" value="getBookData(textQuery, studentID, collectionID)" style="text;html=1;strokeColor=none;fillColor=none;align=center;verticalAlign=middle;whiteSpace=wrap;rounded=0;fontSize=13;" parent="1" vertex="1">
          <mxGeometry x="610" y="190" width="300" height="20" as="geometry" />
        </mxCell>
        <mxCell id="UOv02gEyeNIiNMxLk5ma-22" value="Books Data" style="text;html=1;strokeColor=none;fillColor=none;align=center;verticalAlign=middle;whiteSpace=wrap;rounded=0;fontSize=13;" parent="1" vertex="1">
          <mxGeometry x="700" y="220" width="105" height="20" as="geometry" />
        </mxCell>
        <mxCell id="MFeF2Tt4LVVwpPIBqIVp-1" value="alt" style="shape=umlFrame;whiteSpace=wrap;html=1;pointerEvents=0;strokeColor=#000000;fontSize=13;width=40;height=20;" vertex="1" parent="1">
          <mxGeometry x="10" y="260" width="610" height="440" as="geometry" />
        </mxCell>
        <mxCell id="MFeF2Tt4LVVwpPIBqIVp-2" value="returnData(bookData)" style="text;html=1;strokeColor=none;fillColor=none;align=center;verticalAlign=middle;whiteSpace=wrap;rounded=0;fontSize=13;" vertex="1" parent="1">
          <mxGeometry x="320" y="290" width="135" height="20" as="geometry" />
        </mxCell>
        <mxCell id="MFeF2Tt4LVVwpPIBqIVp-3" value="" style="endArrow=classic;html=1;rounded=0;fontSize=13;" edge="1" parent="1" source="8WBUeJ8e2ZMxS5DKSKpC-84">
          <mxGeometry width="50" height="50" relative="1" as="geometry">
            <mxPoint x="460" y="310" as="sourcePoint" />
            <mxPoint x="295" y="310" as="targetPoint" />
            <Array as="points">
              <mxPoint x="440" y="310" />
            </Array>
          </mxGeometry>
        </mxCell>
        <mxCell id="MFeF2Tt4LVVwpPIBqIVp-4" value="" style="endArrow=classic;html=1;rounded=0;fontSize=13;dashed=1;" edge="1" parent="1">
          <mxGeometry width="50" height="50" relative="1" as="geometry">
            <mxPoint x="285" y="330" as="sourcePoint" />
            <mxPoint x="70" y="330" as="targetPoint" />
            <Array as="points">
              <mxPoint x="211" y="330" />
              <mxPoint x="130" y="330" />
            </Array>
          </mxGeometry>
        </mxCell>
        <mxCell id="MFeF2Tt4LVVwpPIBqIVp-5" value="Display Books" style="text;html=1;strokeColor=none;fillColor=none;align=center;verticalAlign=middle;whiteSpace=wrap;rounded=0;fontSize=13;" vertex="1" parent="1">
          <mxGeometry x="115" y="310" width="106.25" height="20" as="geometry" />
        </mxCell>
        <mxCell id="MFeF2Tt4LVVwpPIBqIVp-6" value="[Books Found]" style="text;html=1;strokeColor=none;fillColor=none;align=center;verticalAlign=middle;whiteSpace=wrap;rounded=0;fontSize=13;" vertex="1" parent="1">
          <mxGeometry x="10" y="280" width="100" height="20" as="geometry" />
        </mxCell>
        <mxCell id="MFeF2Tt4LVVwpPIBqIVp-7" value="returnData(null)" style="text;html=1;strokeColor=none;fillColor=none;align=center;verticalAlign=middle;whiteSpace=wrap;rounded=0;fontSize=13;" vertex="1" parent="1">
          <mxGeometry x="350.62" y="720" width="110" height="20" as="geometry" />
        </mxCell>
        <mxCell id="MFeF2Tt4LVVwpPIBqIVp-8" value="" style="endArrow=classic;html=1;rounded=0;fontSize=13;" edge="1" parent="1" source="8WBUeJ8e2ZMxS5DKSKpC-84">
          <mxGeometry width="50" height="50" relative="1" as="geometry">
            <mxPoint x="460.62" y="740" as="sourcePoint" />
            <mxPoint x="295.62" y="740" as="targetPoint" />
            <Array as="points">
              <mxPoint x="440.62" y="740" />
            </Array>
          </mxGeometry>
        </mxCell>
        <mxCell id="MFeF2Tt4LVVwpPIBqIVp-9" value="" style="endArrow=classic;html=1;rounded=0;fontSize=13;dashed=1;" edge="1" parent="1">
          <mxGeometry width="50" height="50" relative="1" as="geometry">
            <mxPoint x="285.62" y="760" as="sourcePoint" />
            <mxPoint x="70.62" y="760" as="targetPoint" />
            <Array as="points">
              <mxPoint x="219.62" y="760" />
              <mxPoint x="129.62" y="760" />
            </Array>
          </mxGeometry>
        </mxCell>
        <mxCell id="MFeF2Tt4LVVwpPIBqIVp-10" value="Display No Book Found" style="text;html=1;strokeColor=none;fillColor=none;align=center;verticalAlign=middle;whiteSpace=wrap;rounded=0;fontSize=13;" vertex="1" parent="1">
          <mxGeometry x="97.81" y="740" width="155.62" height="20" as="geometry" />
        </mxCell>
        <mxCell id="MFeF2Tt4LVVwpPIBqIVp-11" value="[No Books]" style="text;html=1;strokeColor=none;fillColor=none;align=center;verticalAlign=middle;whiteSpace=wrap;rounded=0;fontSize=13;" vertex="1" parent="1">
          <mxGeometry x="10.619999999999997" y="700" width="80" height="20" as="geometry" />
        </mxCell>
        <mxCell id="MFeF2Tt4LVVwpPIBqIVp-12" value="viewCitation(bookID)" style="text;html=1;strokeColor=none;fillColor=none;align=center;verticalAlign=middle;whiteSpace=wrap;rounded=0;fontSize=13;" vertex="1" parent="1">
          <mxGeometry x="106.25" y="390" width="132.5" height="20" as="geometry" />
        </mxCell>
        <mxCell id="MFeF2Tt4LVVwpPIBqIVp-13" value="" style="endArrow=classic;html=1;rounded=0;fontSize=13;" edge="1" parent="1">
          <mxGeometry width="50" height="50" relative="1" as="geometry">
            <mxPoint x="70" y="410" as="sourcePoint" />
            <mxPoint x="285" y="410" as="targetPoint" />
            <Array as="points">
              <mxPoint x="138.75" y="410" />
              <mxPoint x="203.75" y="410" />
            </Array>
          </mxGeometry>
        </mxCell>
        <mxCell id="MFeF2Tt4LVVwpPIBqIVp-14" value="" style="endArrow=classic;html=1;rounded=0;fontSize=13;dashed=1;" edge="1" parent="1">
          <mxGeometry width="50" height="50" relative="1" as="geometry">
            <mxPoint x="285" y="440" as="sourcePoint" />
            <mxPoint x="70" y="440" as="targetPoint" />
            <Array as="points">
              <mxPoint x="208" y="440" />
              <mxPoint x="170" y="440" />
              <mxPoint x="128" y="440" />
            </Array>
          </mxGeometry>
        </mxCell>
        <mxCell id="MFeF2Tt4LVVwpPIBqIVp-15" value="Display Citation" style="text;html=1;strokeColor=none;fillColor=none;align=center;verticalAlign=middle;whiteSpace=wrap;rounded=0;fontSize=13;" vertex="1" parent="1">
          <mxGeometry x="101.25" y="420" width="115" height="20" as="geometry" />
        </mxCell>
        <mxCell id="MFeF2Tt4LVVwpPIBqIVp-16" value="opt" style="shape=umlFrame;whiteSpace=wrap;html=1;pointerEvents=0;strokeColor=#000000;fontSize=13;width=40;height=20;" vertex="1" parent="1">
          <mxGeometry x="30" y="350" width="290" height="110" as="geometry" />
        </mxCell>
        <mxCell id="MFeF2Tt4LVVwpPIBqIVp-17" value="opt" style="shape=umlFrame;whiteSpace=wrap;html=1;pointerEvents=0;strokeColor=#000000;fontSize=13;width=40;height=20;" vertex="1" parent="1">
          <mxGeometry x="30" y="460" width="290" height="110" as="geometry" />
        </mxCell>
        <mxCell id="MFeF2Tt4LVVwpPIBqIVp-18" value="viewSummary(bookID)" style="text;html=1;strokeColor=none;fillColor=none;align=center;verticalAlign=middle;whiteSpace=wrap;rounded=0;fontSize=13;" vertex="1" parent="1">
          <mxGeometry x="101.88" y="500" width="141.25" height="20" as="geometry" />
        </mxCell>
        <mxCell id="MFeF2Tt4LVVwpPIBqIVp-19" value="" style="endArrow=classic;html=1;rounded=0;fontSize=13;" edge="1" parent="1">
          <mxGeometry width="50" height="50" relative="1" as="geometry">
            <mxPoint x="70" y="520" as="sourcePoint" />
            <mxPoint x="285" y="520" as="targetPoint" />
            <Array as="points">
              <mxPoint x="100" y="520" />
              <mxPoint x="130" y="520" />
              <mxPoint x="170" y="520" />
              <mxPoint x="203" y="520" />
            </Array>
          </mxGeometry>
        </mxCell>
        <mxCell id="MFeF2Tt4LVVwpPIBqIVp-20" value="" style="endArrow=classic;html=1;rounded=0;fontSize=13;dashed=1;" edge="1" parent="1">
          <mxGeometry width="50" height="50" relative="1" as="geometry">
            <mxPoint x="270" y="550" as="sourcePoint" />
            <mxPoint x="70" y="550" as="targetPoint" />
            <Array as="points">
              <mxPoint x="206" y="550" />
              <mxPoint x="170" y="550" />
              <mxPoint x="126" y="550" />
            </Array>
          </mxGeometry>
        </mxCell>
        <mxCell id="MFeF2Tt4LVVwpPIBqIVp-21" value="Display Summary" style="text;html=1;strokeColor=none;fillColor=none;align=center;verticalAlign=middle;whiteSpace=wrap;rounded=0;fontSize=13;" vertex="1" parent="1">
          <mxGeometry x="113.75" y="530" width="106.25" height="20" as="geometry" />
        </mxCell>
        <mxCell id="MFeF2Tt4LVVwpPIBqIVp-22" value="opt" style="shape=umlFrame;whiteSpace=wrap;html=1;pointerEvents=0;strokeColor=#000000;fontSize=13;width=40;height=20;" vertex="1" parent="1">
          <mxGeometry x="30" y="570" width="290" height="110" as="geometry" />
        </mxCell>
        <mxCell id="MFeF2Tt4LVVwpPIBqIVp-23" value="viewPublishingDetails(bookID)" style="text;html=1;strokeColor=none;fillColor=none;align=center;verticalAlign=middle;whiteSpace=wrap;rounded=0;fontSize=13;" vertex="1" parent="1">
          <mxGeometry x="90" y="610" width="190" height="20" as="geometry" />
        </mxCell>
        <mxCell id="MFeF2Tt4LVVwpPIBqIVp-24" value="" style="endArrow=classic;html=1;rounded=0;fontSize=13;" edge="1" parent="1">
          <mxGeometry width="50" height="50" relative="1" as="geometry">
            <mxPoint x="70" y="630" as="sourcePoint" />
            <mxPoint x="285" y="630" as="targetPoint" />
            <Array as="points">
              <mxPoint x="103" y="630" />
              <mxPoint x="180" y="630" />
              <mxPoint x="250" y="630" />
            </Array>
          </mxGeometry>
        </mxCell>
        <mxCell id="MFeF2Tt4LVVwpPIBqIVp-25" value="" style="endArrow=classic;html=1;rounded=0;fontSize=13;dashed=1;" edge="1" parent="1">
          <mxGeometry width="50" height="50" relative="1" as="geometry">
            <mxPoint x="285" y="660" as="sourcePoint" />
            <mxPoint x="70" y="660" as="targetPoint" />
            <Array as="points">
              <mxPoint x="210" y="660" />
              <mxPoint x="129" y="660" />
            </Array>
          </mxGeometry>
        </mxCell>
        <mxCell id="MFeF2Tt4LVVwpPIBqIVp-26" value="Display Publishing Details" style="text;html=1;strokeColor=none;fillColor=none;align=center;verticalAlign=middle;whiteSpace=wrap;rounded=0;fontSize=13;" vertex="1" parent="1">
          <mxGeometry x="102.5" y="640" width="165" height="20" as="geometry" />
        </mxCell>
        <mxCell id="MFeF2Tt4LVVwpPIBqIVp-27" value="[Citation]" style="text;html=1;strokeColor=none;fillColor=none;align=center;verticalAlign=middle;whiteSpace=wrap;rounded=0;fontSize=13;" vertex="1" parent="1">
          <mxGeometry x="30" y="370" width="70" height="20" as="geometry" />
        </mxCell>
        <mxCell id="MFeF2Tt4LVVwpPIBqIVp-28" value="[Summary]" style="text;html=1;strokeColor=none;fillColor=none;align=center;verticalAlign=middle;whiteSpace=wrap;rounded=0;fontSize=13;" vertex="1" parent="1">
          <mxGeometry x="30.94" y="480" width="79.06" height="20" as="geometry" />
        </mxCell>
        <mxCell id="MFeF2Tt4LVVwpPIBqIVp-29" value="[Details]" style="text;html=1;strokeColor=none;fillColor=none;align=center;verticalAlign=middle;whiteSpace=wrap;rounded=0;fontSize=13;" vertex="1" parent="1">
          <mxGeometry x="30.94" y="590" width="59.06" height="20" as="geometry" />
        </mxCell>
        <mxCell id="MFeF2Tt4LVVwpPIBqIVp-30" value="" style="rounded=0;whiteSpace=wrap;html=1;fillColor=none;" vertex="1" parent="1">
          <mxGeometry x="10" y="700" width="610" height="80" as="geometry" />
        </mxCell>
      </root>
    </mxGraphModel>
  </diagram>
</mxfile>
